<svg xmlns="http://www.w3.org/2000/svg" viewBox="0 0 152.01 165.41"><defs><style>.cls-1,.cls-2{fill:#fff;}.cls-1,.cls-4{stroke:#000;stroke-miterlimit:10;stroke-width:3px;}.cls-3{fill:#71caf4;}.cls-4{fill:none;}.cls-5{fill:#1c8daf;}.cls-6{fill:#333;}</style></defs><title>Asset 7</title><g id="Layer_2" data-name="Layer 2"><g id="Layer_11" data-name="Layer 11"><path class="cls-1" d="M136.05,43.44,121.42,59.77,109.07,73.56a58.4,58.4,0,1,1-31-23.8l6.77-7.56,21.94-24.49.35-.39"/><path class="cls-2" d="M109.64,21.88q-.7-1.08-1.27-2.1c-1.77-3.19-2.53-6-2-7.82a3.11,3.11,0,0,1,.68-1.33l7-7.92c-1.34,1.5-1,4.29.61,7.71,2,4.26,6.11,9.5,11.51,14.42S137.35,33.43,141.83,35c3.5,1.26,6.26,1.3,7.63-.18l-7.83,8.52c-2,1.12-5.7.37-10.06-1.81q-.63-.32-1.29-.67"/><path d="M110.94,21.12c-1.61-2.56-4.22-6.44-2.78-9.52a13.57,13.57,0,0,1,2.15-2.42l4.82-5.41L112.77,2C108,9.69,120.13,21.35,125.13,25.9S143,41.67,150.21,36.14l-1.82-2.36c-2.16,2.35-4.56,6.11-7.27,7.78-3,1.88-7.19-.46-10.09-2-1.71-.9-3.23,1.69-1.51,2.59,3.16,1.66,7,3.62,10.69,3.13,4.25-.57,7.62-6.48,10.31-9.4,1.09-1.18-.41-3.44-1.82-2.36-5.57,4.3-17.76-6.4-21.45-9.77S111.7,9.36,115.36,3.47C116.25,2,114.15.37,113,1.65c-2.28,2.56-5,5-7,7.83-3,4.22-.1,9.33,2.31,13.16,1,1.63,3.62.13,2.59-1.51Z"/><path class="cls-2" d="M149.46,34.85c-1.36,1.47-4.12,1.44-7.63.18-4.48-1.6-10.17-5.2-15.64-10.18s-9.48-10.16-11.51-14.42c-1.63-3.41-1.95-6.2-.61-7.71l0-.05c3.11-3.33,13.5,1.15,23.25,10,9.37,8.52,14.73,18,12.42,21.73A2.77,2.77,0,0,1,149.46,34.85Z"/><path d="M148.7,33.55c-6.25,4.82-20.31-8.48-24-12.25-2.39-2.42-16.19-19.84-5.7-18,7.56,1.3,14.73,7.72,19.91,12.95,2.76,2.79,12.91,13.08,9.29,17.89-1.16,1.54,1.44,3,2.59,1.51,5-6.68-6.26-18.09-10.39-22.14A56.82,56.82,0,0,0,124.61,2.07c-2.87-1.31-7.06-3-10.18-1.45-8.38,4.19,3.49,17.91,6.9,21.55a60,60,0,0,0,16.17,12.58c3.68,1.87,9,4.25,12.7,1.39C151.72,35,150.23,32.37,148.7,33.55Z"/></g><g id="Layer_3" data-name="Layer 3"><g id="Layer_10" data-name="Layer 10"><path class="cls-3" d="M118.3,110.31c0,.33-.06.56-.08.74-.44,3.79-2.34,16.64-10.68,28.17C97.07,153.67,77.07,165.78,55.1,163.7,24,160.76-.11,130.47,1.71,100.51,3.16,76.73,20.46,61.6,24.54,58.21c8.17,13.39,16.71,18.14,23,20,17.13,5.07,29.85-7.63,49-2a43.59,43.59,0,0,1,19,12,59.92,59.92,0,0,1,2.27,9.48A59.22,59.22,0,0,1,118.3,110.31Z"/></g><path class="cls-4" d="M136.05,43.44,121.42,59.77,109.07,73.56a58.4,58.4,0,1,1-31-23.8l6.77-7.56,21.94-24.49.35-.39"/><path class="cls-5" d="M125.74,19.91a5.4,5.4,0,0,1-2.1,2.78c-.85-.88-1.77-1.87-2.75-3-.63-.71-1.17-1.33-1.83-2.16s-1.55-2-2.37-3.31a5.49,5.49,0,0,1,9,5.67Z"/><path class="cls-3" d="M123.65,22.69a5.44,5.44,0,0,1-4.86.7,5.5,5.5,0,0,1-3.48-7,5.3,5.3,0,0,1,1.4-2.2c.7,1.07,1.49,2.18,2.37,3.31A51.44,51.44,0,0,0,123.65,22.69Z"/><path d="M123.8,102c-7.5,2.46-34.23,10.22-64.76-1.67A96.82,96.82,0,0,1,12.72,62c-1.08,1.79-8.55,14.69-3.2,29.66,1.4,3.92,6.22,15.12,18.7,19.75,14.72,5.47,27.48-2.87,28.76-3.74.88,3.09,3.82,11.91,12.37,17.55,13.54,8.95,29.33,2.15,32.38.83C117.21,119.36,122.78,104.83,123.8,102Z"/><path d="M123.48,100.83c-41,13.32-86.71-3.09-109.73-39.47a1.21,1.21,0,0,0-2.07,0,36.58,36.58,0,0,0,2.18,40.72c10.37,13.51,29.7,15.94,43.72,6.6L55.81,108c5.26,18,22.6,26.4,40.33,21.34a43.32,43.32,0,0,0,28.81-27c.53-1.45-1.79-2.08-2.31-.64a40.7,40.7,0,0,1-25.25,24.74c-8.26,2.74-17.36,3.14-25.26-1-7.08-3.67-11.81-10.61-14-18.13a1.21,1.21,0,0,0-1.76-.72C43,115.53,24.59,113,15.09,99.74a34.23,34.23,0,0,1-1.34-37.17H11.68c23.58,37.27,70.44,54.23,112.44,40.57C125.58,102.67,125,100.35,123.48,100.83Z"/><path d="M27.67,127.08a31.06,31.06,0,0,0,42.39,11.52c2-1.14.2-4.25-1.82-3.11a27.45,27.45,0,0,1-37.47-10.23c-1.14-2-4.25-.2-3.11,1.82Z"/><circle class="cls-3" cx="108.97" cy="50.86" r="7.35" transform="translate(-9.54 30.44) rotate(-15.24)"/><circle class="cls-3" cx="48.19" cy="62.15" r="5.8" transform="translate(-14.19 110.05) rotate(-89.73)"/><path d="M110.94,21.12c-1.61-2.56-4.22-6.44-2.78-9.52a13.57,13.57,0,0,1,2.15-2.42l4.82-5.41L112.77,2C108,9.69,120.13,21.35,125.13,25.9S143,41.67,150.21,36.14l-1.82-2.36c-2.16,2.35-4.56,6.11-7.27,7.78-3,1.88-7.19-.46-10.09-2-1.71-.9-3.23,1.69-1.51,2.59,3.16,1.66,7,3.62,10.69,3.13,4.25-.57,7.62-6.48,10.31-9.4,1.09-1.18-.41-3.44-1.82-2.36-5.57,4.3-17.76-6.4-21.45-9.77S111.7,9.36,115.36,3.47C116.25,2,114.15.37,113,1.65c-2.28,2.56-5,5-7,7.83-3,4.22-.1,9.33,2.31,13.16,1,1.63,3.62.13,2.59-1.51Z"/><path d="M148.7,33.55c-6.25,4.82-20.31-8.48-24-12.25-2.39-2.42-16.19-19.84-5.7-18,7.56,1.3,14.73,7.72,19.91,12.95,2.76,2.79,12.91,13.08,9.29,17.89-1.16,1.54,1.44,3,2.59,1.51,5-6.68-6.26-18.09-10.39-22.14A56.82,56.82,0,0,0,124.61,2.07c-2.87-1.31-7.06-3-10.18-1.45-8.38,4.19,3.49,17.91,6.9,21.55a60,60,0,0,0,16.17,12.58c3.68,1.87,9,4.25,12.7,1.39C151.72,35,150.23,32.37,148.7,33.55Z"/><path class="cls-6" d="M144.64,143.13"/><circle class="cls-3" cx="82.19" cy="62.15" r="4.73" transform="translate(-3.09 119.98) rotate(-71.23)"/><circle class="cls-3" cx="106.19" cy="33.15" r="2.89" transform="translate(40.64 123.03) rotate(-71.23)"/></g><g id="Layer_8" data-name="Layer 8"><path d="M127.74,50.35a16.43,16.43,0,0,1-10.93-6c-1.21-1.51-3.32.63-2.12,2.12a19.39,19.39,0,0,0,13,6.86c1.91.23,1.9-2.77,0-3Z"/><path d="M118.32,60.89a16.43,16.43,0,0,1-10.93-6c-1.21-1.51-3.32.63-2.12,2.12a19.39,19.39,0,0,0,13,6.86c1.91.23,1.9-2.77,0-3Z"/></g></g></svg>
